<svg width='200' height='200' fill="#ffffff" xmlns="http://www.w3.org/2000/svg" xmlns:xlink="http://www.w3.org/1999/xlink" version="1.1" x="0px" y="0px" viewBox="0 0 100 100" enable-background="new 0 0 100 100" xml:space="preserve"><path fill-rule="evenodd" clip-rule="evenodd" d="M65.998,78.78C65.168,84.674,62.14,95,58.558,95c-6.814,0-13.63,0-20.445,0  c-3.582,0-6.61-10.327-7.439-16.22c0.975,0.367,2.029,0.569,3.128,0.569h29.067C63.967,79.349,65.024,79.147,65.998,78.78z"/><path fill-rule="evenodd" clip-rule="evenodd" d="M38.113,5c6.815,0,13.631,0,20.445,0c3.55,0,6.559,10.26,7.418,16.211  c-0.97-0.363-2.016-0.56-3.108-0.56H33.803c-1.09,0-2.138,0.197-3.107,0.56C31.555,15.259,34.562,5,38.113,5z"/><path fill-rule="evenodd" clip-rule="evenodd" d="M33.803,22.048h29.067c4.92,0,8.943,4.024,8.943,8.943v4.473h1.094  c1.231,0,2.235,1.004,2.235,2.235v5.591c0,1.231-1.004,2.235-2.235,2.235h-1.094v23.479c0,4.919-4.023,8.942-8.943,8.942H33.803  c-4.92,0-8.943-4.023-8.943-8.942V30.991C24.859,26.072,28.883,22.048,33.803,22.048L33.803,22.048z M48.337,44.805  c-2.868,0-5.192,2.325-5.192,5.192c0,2.868,2.324,5.192,5.192,5.192c2.868,0,5.192-2.325,5.192-5.192  C53.529,47.13,51.205,44.805,48.337,44.805L48.337,44.805z M60.555,29.154c-1.353-0.839-3.132-0.422-3.97,0.932  c-0.839,1.355-0.422,3.133,0.932,3.97c1.355,0.84,3.132,0.422,3.972-0.932C62.327,31.77,61.909,29.991,60.555,29.154L60.555,29.154z   M60.279,71.001c1.403-0.753,1.931-2.502,1.177-3.904c-0.754-1.404-2.502-1.931-3.904-1.178c-1.404,0.753-1.931,2.502-1.179,3.905  C57.128,71.227,58.877,71.755,60.279,71.001L60.279,71.001z M36.118,70.842c1.354,0.839,3.132,0.422,3.97-0.932  c0.838-1.355,0.422-3.133-0.932-3.97c-1.355-0.84-3.132-0.421-3.971,0.932C34.348,68.226,34.765,70.005,36.118,70.842L36.118,70.842  z M36.395,28.994c-1.403,0.753-1.931,2.502-1.178,3.903c0.754,1.405,2.502,1.931,3.904,1.178c1.404-0.752,1.931-2.502,1.179-3.905  C39.546,28.769,37.797,28.24,36.395,28.994L36.395,28.994z M29.353,39.037c-0.797,1.378-0.325,3.142,1.055,3.938  c1.38,0.796,3.143,0.325,3.937-1.055c0.797-1.38,0.323-3.143-1.055-3.938C31.913,37.186,30.149,37.658,29.353,39.037L29.353,39.037z   M29.353,60.958c0.796,1.38,2.56,1.851,3.937,1.055c1.378-0.795,1.852-2.558,1.055-3.938c-0.794-1.38-2.557-1.851-3.937-1.055  C29.028,57.817,28.556,59.58,29.353,60.958L29.353,60.958z M48.337,71.92c1.592,0,2.884-1.292,2.884-2.884  c0-1.591-1.292-2.883-2.884-2.883s-2.884,1.292-2.884,2.883C45.453,70.628,46.745,71.92,48.337,71.92L48.337,71.92z M67.321,60.958  c0.797-1.378,0.325-3.142-1.055-3.938c-1.38-0.796-3.143-0.325-3.937,1.055c-0.798,1.379-0.324,3.143,1.055,3.938  C64.761,62.809,66.525,62.338,67.321,60.958L67.321,60.958z M67.321,39.037c-0.796-1.38-2.56-1.851-3.937-1.055  c-1.378,0.795-1.852,2.558-1.055,3.938c0.794,1.38,2.557,1.851,3.937,1.055C67.645,42.179,68.118,40.415,67.321,39.037  L67.321,39.037z M48.337,28.075c-1.592,0-2.884,1.292-2.884,2.884c0,1.591,1.292,2.883,2.884,2.883s2.884-1.292,2.884-2.883  C51.221,29.368,49.929,28.075,48.337,28.075L48.337,28.075z M54.107,55.952c-2.23,0-4.04,1.808-4.04,4.039  c0,2.231,1.81,4.038,4.04,4.038c2.231,0,4.038-1.807,4.038-4.038C58.145,57.76,56.338,55.952,54.107,55.952L54.107,55.952z   M46.063,57.972c-1.114-1.931-3.585-2.592-5.513-1.479c-1.931,1.115-2.594,3.586-1.48,5.517c1.115,1.929,3.586,2.591,5.515,1.478  C46.516,62.373,47.178,59.903,46.063,57.972L46.063,57.972z M40.295,52.018c1.115-1.933,0.453-4.402-1.478-5.517  c-1.932-1.115-4.402-0.453-5.517,1.478c-1.114,1.932-0.454,4.402,1.478,5.517C36.71,54.61,39.18,53.948,40.295,52.018L40.295,52.018  z M42.567,44.044c2.23,0,4.04-1.808,4.04-4.039c0-2.231-1.81-4.038-4.04-4.038c-2.231,0-4.038,1.807-4.038,4.038  C38.529,42.235,40.336,44.044,42.567,44.044L42.567,44.044z M50.608,42.023c1.115,1.931,3.586,2.593,5.517,1.48  c1.93-1.115,2.594-3.586,1.479-5.518c-1.115-1.929-3.586-2.593-5.515-1.478C50.158,37.622,49.495,40.093,50.608,42.023  L50.608,42.023z M56.379,47.978c-1.115,1.932-0.454,4.402,1.478,5.517c1.932,1.115,4.402,0.453,5.516-1.477  c1.115-1.933,0.455-4.402-1.477-5.517C59.964,45.385,57.494,46.047,56.379,47.978z"/></svg>